  <svg xmlns="http://www.w3.org/2000/svg" viewBox="0 0 24 24">
        <path d="M16.074 16.86c-.72.616-2.157 1.035-3.812 1.035-2.032 0-3.735-.632-4.187-1.483-.161.488-.198 1.046-.198 1.402 0 0-.106 1.75 1.111 2.968 0-.632.513-1.145 1.145-1.145 1.083 0 1.082.945 1.081 1.712v.069c0 1.164.711 2.161 1.723 2.582a2.347 2.347 0 0 1-.236-1.029c0-1.11.652-1.523 1.41-1.523.604 0 .989.414.989 1.006 0 .344-.161.657-.413.863.302.182.646.182.948.182 1.417 0 2.566-1.149 2.566-2.566v-.001c0-.722-.161-1.424-.452-2.06-.953.196-1.95.196-2.675-.012zm-3.478-.88c.185-.651.205-1.387.205-1.756 0-1.91-.771-2.723-1.217-3.106-.122.272-.304.595-.304 1.121 0 .771-.13 1.786-.87 2.487 0 0-.034-1.178-.361-2.322-.327.489-.49 1.467-.49 2.084 0 1.286.094 2.27 1.106 2.598.184-.489.512-.853.83-1.106zm7.075-1.092c0 1.881-1.213 2.513-2.324 2.513-.932 0-1.552-.319-1.959-.813 1.033-.221 2.11-1.326 2.11-3.043 0-1.44-.939-2.982-2.673-3.817.391-.66.976-1.224 1.565-1.633-2.235-1.527-5.232-1.116-7.223.68C8.895 8.785 8.37 9.679 8.008 10.6c-.547-.388-1.074-1.064-1.246-1.633-.434.98-.376 2.149.012 3.01-.51.283-1.261.847-1.68 1.633C4.387 11.875 4.023 9.829 4.023 8.507c0-4.193 3.402-7.595 7.595-7.595s7.595 3.402 7.595 7.595c0 1.321-.364 3.367-1.071 5.101-.418-.785-1.169-1.349-1.679-1.633a3.022 3.022 0 0 0 .012-3.01c-.172.568-.699 1.244-1.246 1.633-.362-.92-.887-1.815-1.158-2.024-1.991-1.796-4.988-2.207-7.223-.68.589.408 1.174.973 1.565 1.633-1.734.835-2.673 2.377-2.673 3.817 0 1.717 1.077 2.822 2.11 3.043-.407.494-1.027.813-1.959.813-1.111 0-2.324-.632-2.324-2.513-.527.569-.856 1.32-.856 2.149 0 1.75 1.42 3.169 3.169 3.169.753 0 1.44-.266 1.987-.697.18.697.697 1.542 1.733 2.156 1.037.613 2.426.93 4.075.93 1.649 0 3.038-.317 4.075-.93 1.036-.614 1.553-1.459 1.733-2.156a3.153 3.153 0 0 0 1.987.697c1.75 0 3.169-1.42 3.169-3.169 0-.829-.329-1.58-.856-2.149z"/>
      </svg>