      <svg xmlns="http://www.w3.org/2000/svg" viewBox="0 0 180 180">
        <path d="M90 0C40.293 0 0 40.293 0 90s40.293 90 90 90 90-40.293 90-90S139.707 0 90 0Zm28.164 148.64c-1.137.647-2.436.97-3.737.97-2.161 0-4.307-.863-5.887-2.599L66.6 97.629v49.423c0 4.217-3.417 7.636-7.634 7.636s-7.634-3.419-7.634-7.636V32.948c0-2.866 1.618-5.485 4.18-6.773a7.636 7.636 0 0 1 7.887.767l41.938 49.382V32.948c0-4.217 3.417-7.636 7.634-7.636s7.634 3.419 7.634 7.636v108.104c0 2.866-1.618 5.485-4.18 6.773l.72.815Z"/>
      </svg>